<?xml version="1.0" encoding="UTF-8" standalone="no"?>
<!-- Created with Inkscape (http://www.inkscape.org/) -->

<svg
   width="10mm"
   height="10mm"
   viewBox="0 0 10 10"
   version="1.1"
   id="svg5"
   sodipodi:docname="dative.svg"
   inkscape:version="1.1.1 (3bf5ae0d25, 2021-09-20, custom)"
   xmlns:inkscape="http://www.inkscape.org/namespaces/inkscape"
   xmlns:sodipodi="http://sodipodi.sourceforge.net/DTD/sodipodi-0.dtd"
   xmlns="http://www.w3.org/2000/svg"
   xmlns:svg="http://www.w3.org/2000/svg">
  <sodipodi:namedview
     id="namedview7"
     pagecolor="#005f56"
     bordercolor="#666666"
     borderopacity="1.0"
     inkscape:pageshadow="2"
     inkscape:pageopacity="1"
     inkscape:pagecheckerboard="0"
     inkscape:document-units="mm"
     showgrid="false"
     inkscape:zoom="9.2078563"
     inkscape:cx="7.1677921"
     inkscape:cy="19.277017"
     inkscape:window-width="1920"
     inkscape:window-height="1056"
     inkscape:window-x="0"
     inkscape:window-y="0"
     inkscape:window-maximized="1"
     inkscape:current-layer="layer1"
     inkscape:snap-page="true"
     inkscape:showpageshadow="0"
     inkscape:deskcolor="#d1d1d1" />
  <defs
     id="defs2" />
  <g
     inkscape:label="Layer 1"
     inkscape:groupmode="layer"
     id="layer1">
    <path
       id="path2126"
       style="color:#000000;font-variation-settings:normal;opacity:1;vector-effect:none;fill:#ffffff;fill-opacity:1;stroke:#000000;stroke-width:1;stroke-linecap:round;stroke-linejoin:round;stroke-miterlimit:4;stroke-dasharray:none;stroke-dashoffset:1.74161;stroke-opacity:1;-inkscape-stroke:none;stop-color:#000000;stop-opacity:1"
       d="m 34.083984,25.068359 h -4.169922 c -2.154233,3.852208 -6.269471,6.445313 -11.015624,6.445313 -4.746154,0 -8.861392,-2.593105 -11.0156255,-6.445313 h -4.171875 c 2.4451281,5.987971 8.3352385,10.22461 15.1875005,10.22461 6.852261,0 12.740418,-4.236639 15.185546,-10.22461 z"
       transform="scale(0.26458333)" />
    <path
       id="path2122"
       style="color:#000000;font-variation-settings:normal;opacity:1;vector-effect:none;fill:#ffffff;fill-opacity:1;stroke:#000000;stroke-width:1;stroke-linecap:round;stroke-linejoin:round;stroke-miterlimit:4;stroke-dasharray:none;stroke-dashoffset:1.74161;stroke-opacity:1;-inkscape-stroke:none;stop-color:#000000;stop-opacity:1"
       d="m 18.898438,2.5019531 c -7.22979,0 -13.3891714,4.7148257 -15.5605474,11.2285159 H 7.3769531 C 9.3429462,9.3312728 13.750613,6.28125 18.898438,6.28125 c 5.147824,0 9.553538,3.0500228 11.519531,7.449219 h 4.039062 C 32.285618,7.2168434 26.128181,2.5019532 18.898438,2.5019531 Z"
       transform="scale(0.26458333)" />
    <path
       style="color:#000000;font-variation-settings:normal;opacity:1;vector-effect:none;fill:#ffffff;fill-opacity:1;stroke:#000000;stroke-width:0.264583;stroke-linecap:round;stroke-linejoin:round;stroke-miterlimit:4;stroke-dasharray:none;stroke-dashoffset:0.460801;stroke-opacity:1;-inkscape-stroke:none;stop-color:#000000;stop-opacity:1"
       d="M 1,4.5 A 0.5,0.5 0 0 0 0.5,5 0.5,0.5 0 0 0 1,5.5 H 9 A 0.5,0.5 0 0 0 9.5,5 0.5,0.5 0 0 0 9,4.5 Z"
       id="path2322" />
  </g>
</svg>
