<?xml version="1.0" encoding="UTF-8" standalone="no"?>
<!-- Created with Inkscape (http://www.inkscape.org/) -->

<svg
   width="10mm"
   height="10mm"
   viewBox="0 0 10 10"
   version="1.1"
   id="svg5"
   sodipodi:docname="genitive.svg"
   inkscape:version="1.1.1 (3bf5ae0d25, 2021-09-20, custom)"
   inkscape:export-filename="Mule_Genitive.svg"
   inkscape:export-xdpi="96"
   inkscape:export-ydpi="96"
   xmlns:inkscape="http://www.inkscape.org/namespaces/inkscape"
   xmlns:sodipodi="http://sodipodi.sourceforge.net/DTD/sodipodi-0.dtd"
   xmlns="http://www.w3.org/2000/svg"
   xmlns:svg="http://www.w3.org/2000/svg">
  <sodipodi:namedview
     id="namedview7"
     pagecolor="#005f56"
     bordercolor="#666666"
     borderopacity="1.0"
     inkscape:pageshadow="2"
     inkscape:pageopacity="1"
     inkscape:pagecheckerboard="0"
     inkscape:document-units="mm"
     showgrid="false"
     inkscape:zoom="9.2078563"
     inkscape:cx="7.1677921"
     inkscape:cy="19.277017"
     inkscape:window-width="1920"
     inkscape:window-height="1056"
     inkscape:window-x="0"
     inkscape:window-y="0"
     inkscape:window-maximized="1"
     inkscape:current-layer="layer1"
     inkscape:snap-page="true"
     inkscape:showpageshadow="0"
     inkscape:deskcolor="#d1d1d1" />
  <defs
     id="defs2" />
  <g
     inkscape:label="Layer 1"
     inkscape:groupmode="layer"
     id="layer1">
    <path
       id="path846"
       style="color:#000000;font-variation-settings:normal;opacity:1;vector-effect:none;fill:#ffffff;fill-opacity:1;stroke:#000000;stroke-width:0.264583;stroke-linecap:round;stroke-linejoin:round;stroke-miterlimit:4;stroke-dasharray:none;stroke-dashoffset:0.460801;stroke-opacity:1;-inkscape-stroke:none;stop-color:#000000;stop-opacity:1"
       d="m 5.0002116,0.6619751 c -2.3901824,0 -4.33823649,1.9480541 -4.3382365,4.3382365 10e-9,2.3901824 1.9480541,4.3377197 4.3382365,4.3377197 2.3901824,0 4.3377197,-1.9475373 4.3377197,-4.3377197 0,-2.3901824 -1.9475373,-4.33823649 -4.3377197,-4.3382365 z M 4.4999837,1.6996379 V 4.4999837 H 1.6996379 C 1.9151586,3.0523311 3.0523311,1.9151586 4.4999837,1.6996379 Z m 0.999939,0 C 6.9475753,1.9151586 8.0852646,3.0523311 8.3007853,4.4999837 H 5.4999227 Z M 1.6996379,5.4999227 H 4.4999837 V 8.3007853 C 3.0523311,8.0852646 1.9151586,6.9475753 1.6996379,5.4999227 Z m 3.8002848,0 H 8.3007853 C 8.0852646,6.9475753 6.9475753,8.0852646 5.4999227,8.3007853 Z" />
  </g>
</svg>
