<?xml version="1.0" encoding="UTF-8" standalone="no"?>
<!-- Created with Inkscape (http://www.inkscape.org/) -->

<svg
   width="10mm"
   height="10mm"
   viewBox="0 0 10 10"
   version="1.1"
   id="svg5"
   xmlns="http://www.w3.org/2000/svg"
   xmlns:svg="http://www.w3.org/2000/svg">
  <defs
     id="defs2" />
  <g
     id="layer1">
    <path
       style="color:#000000;fill:#ffffff;stroke:#000000;stroke-width:0.264583;stroke-linecap:round;stroke-linejoin:round;stroke-dasharray:none;stroke-dashoffset:1.74161;stroke-opacity:1"
       d="M 5,0.66210937 C 2.609828,0.66211853 0.66211853,2.609828 0.66210937,5 0.66211853,7.390172 2.609828,9.3378815 5,9.3378906 a 0.50005,0.50005 0 0 0 0.029297,0 c 0.035464,-0.0021 0.07202,-0.00485 0.1074218,-0.00781 A 0.50005,0.50005 0 0 0 5.5058594,8.546875 C 5.2533246,8.1820188 5.116512,7.750366 5.1152344,7.3066406 5.1164642,6.0918138 6.0918138,5.1164642 7.3066406,5.1152344 c 0.4434674,7.87e-5 0.8767771,0.135445 1.2421875,0.3867187 a 0.50005,0.50005 0 0 0 0.78125,-0.3710937 c 0.00273,-0.033653 0.00587,-0.067855 0.00781,-0.1015625 A 0.50005,0.50005 0 0 0 9.3378906,5 C 9.3378815,2.609828 7.390172,0.66211853 5,0.66210937 Z M 5,1.6621094 c 1.6362527,6.2e-6 2.9280474,1.1870654 3.21875,2.7363281 C 7.9118317,4.3023062 7.6338349,4.1152921 7.3085937,4.1152344 a 0.50005,0.50005 0 0 0 -0.00195,0 C 5.5499142,4.115499 4.115499,5.5499142 4.1152344,7.3066406 a 0.50005,0.50005 0 0 0 0,0.00195 C 4.1161702,7.633602 4.3035672,7.9122939 4.4003906,8.21875 2.8501834,7.9287959 1.6621156,6.6369195 1.6621094,5 1.6621165,3.1502649 3.1502649,1.6621165 5,1.6621094 Z"
       id="path846" />
    <path
       id="circle2-3"
       style="color:#000000;fill:#ffffff;stroke:#000000;stroke-width:0.264582;stroke-linecap:round;stroke-linejoin:round;stroke-dasharray:none;stroke-dashoffset:1.74161;stroke-opacity:1"
       d="M 8.5957492,6.0939594 H 7.0282817 C 7.027434,6.6182684 6.620121,7.029096 6.0955743,7.029096 h -0.00161 v 1.566658 h 0.00161 c 1.3712847,0 2.4992834,-1.1306997 2.5001749,-2.5017946 z" />
  </g>
</svg>
