<?xml version="1.0" encoding="UTF-8" standalone="no"?>
<!-- Created with Inkscape (http://www.inkscape.org/) -->

<svg
   width="10mm"
   height="10mm"
   viewBox="0 0 10 10"
   version="1.1"
   id="svg5"
   inkscape:version="1.1.1 (3bf5ae0d25, 2021-09-20, custom)"
   sodipodi:docname="accusative.svg"
   xmlns:inkscape="http://www.inkscape.org/namespaces/inkscape"
   xmlns:sodipodi="http://sodipodi.sourceforge.net/DTD/sodipodi-0.dtd"
   xmlns="http://www.w3.org/2000/svg"
   xmlns:svg="http://www.w3.org/2000/svg">
  <sodipodi:namedview
     id="namedview7"
     pagecolor="#005f56"
     bordercolor="#666666"
     borderopacity="1.0"
     inkscape:pageshadow="2"
     inkscape:pageopacity="1"
     inkscape:pagecheckerboard="true"
     inkscape:document-units="mm"
     showgrid="false"
     inkscape:zoom="9.2078563"
     inkscape:cx="7.1677921"
     inkscape:cy="19.277017"
     inkscape:window-width="1920"
     inkscape:window-height="1056"
     inkscape:window-x="0"
     inkscape:window-y="0"
     inkscape:window-maximized="1"
     inkscape:current-layer="layer1"
     inkscape:snap-page="true"
     inkscape:showpageshadow="0"
     inkscape:deskcolor="#d1d1d1" />
  <defs
     id="defs2" />
  <g
     inkscape:label="Layer 1"
     inkscape:groupmode="layer"
     id="layer1">
    <path
       id="path846"
       style="color:#000000;fill:#ffffff;stroke:#000000;stroke-width:1;stroke-linecap:round;stroke-linejoin:round;stroke-dasharray:none;stroke-dashoffset:1.74161;stroke-opacity:1;paint-order:fill markers stroke"
       d="m 18.898438,2.5019531 c -2.449942,0 -4.776721,0.5423539 -6.867188,1.5117188 l 2.902344,2.9003906 C 16.17909,6.5050434 17.512305,6.28125 18.898438,6.28125 c 6.991162,0 12.615234,5.626025 12.615234,12.617188 0,6.991162 -5.624072,12.615234 -12.615234,12.615234 -6.991163,0 -12.617188,-5.624072 -12.617188,-12.615234 0,-1.386133 0.2237934,-2.719348 0.6328125,-3.964844 L 4.0136719,12.03125 c -0.9693649,2.090467 -1.5117188,4.417246 -1.5117188,6.867188 10e-8,9.033769 7.3627151,16.394531 16.3964849,16.394531 9.033769,0 16.394531,-7.360762 16.394531,-16.394531 0,-9.0337698 -7.360762,-16.3964848 -16.394531,-16.3964849 z"
       transform="scale(0.26458333)" />
    <g
       id="path1746"
       style="stroke:#000000;stroke-width:0.264583;stroke-dasharray:none;stroke-opacity:1">
      <path
         style="color:#000000;fill:#ffffff;stroke:#000000;stroke-width:0.264583;stroke-linecap:round;stroke-dasharray:none;stroke-opacity:1"
         d="m 1.0583333,1.0583334 4.0678971,4.067897"
         id="path3" />
      <path
         style="color:#000000;fill:#ffffff;stroke:#000000;stroke-width:0.264583;stroke-linecap:round;stroke-dasharray:none;stroke-opacity:1"
         d="m 0.70507812,0.70507812 a 0.5,0.5 0 0 0 0,0.70703128 L 4.7734375,5.4804687 a 0.5,0.5 0 0 0 0.7070312,0 0.5,0.5 0 0 0 0,-0.7070312 L 1.4121094,0.70507812 a 0.5,0.5 0 0 0 -0.70703128,0 z"
         id="path4" />
    </g>
  </g>
</svg>
