<?xml version="1.0" encoding="UTF-8" standalone="no"?>
<!-- Created with Inkscape (http://www.inkscape.org/) -->

<svg
   width="10mm"
   height="10mm"
   viewBox="0 0 10 10"
   version="1.1"
   id="svg5"
   sodipodi:docname="nominative.svg"
   inkscape:version="1.1.1 (3bf5ae0d25, 2021-09-20, custom)"
   inkscape:export-filename="Mule_Intransitive.svg"
   inkscape:export-xdpi="96"
   inkscape:export-ydpi="96"
   xmlns:inkscape="http://www.inkscape.org/namespaces/inkscape"
   xmlns:sodipodi="http://sodipodi.sourceforge.net/DTD/sodipodi-0.dtd"
   xmlns="http://www.w3.org/2000/svg"
   xmlns:svg="http://www.w3.org/2000/svg">
  <sodipodi:namedview
     id="namedview7"
     pagecolor="#005f56"
     bordercolor="#666666"
     borderopacity="1.0"
     inkscape:pageshadow="2"
     inkscape:pageopacity="1"
     inkscape:pagecheckerboard="0"
     inkscape:document-units="mm"
     showgrid="false"
     inkscape:zoom="9.2078563"
     inkscape:cx="7.1677921"
     inkscape:cy="19.277017"
     inkscape:window-width="1920"
     inkscape:window-height="1056"
     inkscape:window-x="0"
     inkscape:window-y="0"
     inkscape:window-maximized="1"
     inkscape:current-layer="layer1"
     inkscape:snap-page="true"
     inkscape:showpageshadow="0"
     inkscape:deskcolor="#d1d1d1" />
  <defs
     id="defs2" />
  <g
     inkscape:label="Layer 1"
     inkscape:groupmode="layer"
     id="layer1">
    <path
       style="color:#000000;fill:#ffffff;stroke:#000000;stroke-width:0.264583;stroke-linecap:round;stroke-linejoin:round;stroke-dasharray:none;stroke-dashoffset:1.74161;stroke-opacity:1"
       d="M 5,0.66210937 C 2.609828,0.66211853 0.66211853,2.609828 0.66210937,5 0.66211853,7.390172 2.609828,9.3378815 5,9.3378906 a 0.50005,0.50005 0 0 0 0.029297,0 c 0.035464,-0.0021 0.07202,-0.00485 0.1074218,-0.00781 A 0.50005,0.50005 0 0 0 5.5058594,8.546875 C 5.2533246,8.1820188 5.116512,7.750366 5.1152344,7.3066406 5.1164642,6.0918138 6.0918138,5.1164642 7.3066406,5.1152344 c 0.4434674,7.87e-5 0.8767771,0.135445 1.2421875,0.3867187 a 0.50005,0.50005 0 0 0 0.78125,-0.3710937 c 0.00273,-0.033653 0.00587,-0.067855 0.00781,-0.1015625 A 0.50005,0.50005 0 0 0 9.3378906,5 C 9.3378815,2.609828 7.390172,0.66211853 5,0.66210937 Z M 5,1.6621094 c 1.6362527,6.2e-6 2.9280474,1.1870654 3.21875,2.7363281 C 7.9118317,4.3023062 7.6338349,4.1152921 7.3085937,4.1152344 a 0.50005,0.50005 0 0 0 -0.00195,0 C 5.5499142,4.115499 4.115499,5.5499142 4.1152344,7.3066406 a 0.50005,0.50005 0 0 0 0,0.00195 C 4.1161702,7.633602 4.3035672,7.9122939 4.4003906,8.21875 2.8501834,7.9287959 1.6621156,6.6369195 1.6621094,5 1.6621165,3.1502649 3.1502649,1.6621165 5,1.6621094 Z"
       id="path846" />
    <path
       style="color:#000000;fill:#ffffff;stroke:#000000;stroke-width:0.264583;stroke-linecap:round;stroke-linejoin:round;stroke-dasharray:none;stroke-dashoffset:1.74161;stroke-opacity:1"
       d="m 7.3458333,5.748177 c -0.875587,0 -1.5976563,0.7220693 -1.5976563,1.5976563 0,0.875587 0.7220693,1.5957031 1.5976563,1.5957031 0.875587,0 1.5957031,-0.7201161 1.5957031,-1.5957031 0,-0.875587 -0.7201161,-1.5976562 -1.5957031,-1.5976563 z m 0,1 c 0.3351475,0 0.5957031,0.2625088 0.5957031,0.5976563 0,0.3351475 -0.2605556,0.5957031 -0.5957031,0.5957031 -0.3351475,0 -0.5976563,-0.2605556 -0.5976563,-0.5957031 0,-0.3351475 0.2625088,-0.5976563 0.5976563,-0.5976563 z"
       id="circle2" />
  </g>
</svg>
