<svg width="10mm" height="10mm" viewBox="0 0 10 10" xmlns="http://www.w3.org/2000/svg"><path style="color:#000;fill:#fff;stroke-width:3.77953;stroke-linecap:round;stroke-linejoin:round;stroke-dashoffset:1.74161;-inkscape-stroke:none;paint-order:fill markers stroke" d="M18.898 2.502c-2.45 0-4.776.542-6.867 1.512l2.903 2.9a12.69 12.69 0 0 1 3.964-.633 12.586 12.586 0 0 1 12.616 12.617 12.585 12.585 0 0 1-12.616 12.616A12.586 12.586 0 0 1 6.281 18.898c0-1.386.224-2.719.633-3.964l-2.9-2.903a16.284 16.284 0 0 0-1.512 6.867c0 9.034 7.363 16.395 16.396 16.395 9.034 0 16.395-7.36 16.395-16.395 0-9.033-7.36-16.396-16.395-16.396z" transform="scale(.26458)"/><path style="fill:#fff;stroke:#fff;stroke-width:1;stroke-linecap:round;stroke-linejoin:miter;stroke-miterlimit:4;stroke-dasharray:none;stroke-opacity:1" d="m1.058 1.058 4.068 4.068"/></svg>