<svg width="10mm" height="10mm" viewBox="0 0 10 10" xmlns="http://www.w3.org/2000/svg"><path style="color:#000;fill:#fff;stroke-width:3.77953;stroke-linecap:round;stroke-linejoin:round;stroke-dashoffset:1.74161;-inkscape-stroke:none" d="M34.084 25.068h-4.17a12.583 12.583 0 0 1-11.016 6.446 12.583 12.583 0 0 1-11.015-6.446H3.71c2.445 5.988 8.335 10.225 15.187 10.225 6.853 0 12.74-4.237 15.186-10.225zM18.898 2.502c-7.23 0-13.389 4.715-15.56 11.228h4.039a12.587 12.587 0 0 1 11.521-7.449c5.148 0 9.554 3.05 11.52 7.45h4.039C32.286 7.216 26.128 2.501 18.898 2.501z" transform="scale(.26458)"/><path style="fill:none;stroke:#fff;stroke-width:1;stroke-linecap:round;stroke-linejoin:miter;stroke-miterlimit:4;stroke-dasharray:none;stroke-opacity:1" d="M1 5h8"/></svg>